<svg id="visual" viewBox="0 0 900 280" width="900" height="280" xmlns="http://www.w3.org/2000/svg"
  xmlns:xlink="http://www.w3.org/1999/xlink" version="1.1">
  <defs>
    <linearGradient id="Gradient1">
      <stop offset="0%" stop-color="#3338a4" />
      <stop offset="43.71%" stop-color="#5e72eb" />
      <stop offset="81.58%" stop-color="#ff9190" />
    </linearGradient>
    <linearGradient id="Gradient2">
      <stop offset="0%" stop-color="#5e72ea" />
      <stop offset="43.71%" stop-color="#ff9190" />
      <stop offset="81.58%" stop-color="#fdc094" />
    </linearGradient>
  </defs>
  <rect x="0" y="0" width="900" height="600" fill="#002233"></rect>
  <path
    d="M0 226L50 237C100 248 200 270 300 263.8C400 257.7 500 208 600 199C700 193 800 245 850 260L900 280L900 0L850 0C800 0 700 0 600 0C500 0 400 0 300 0C200 0 100 0 50 0L0 0Z"
    fill="url(#Gradient2)" stroke-linecap="round" stroke-linejoin="miter"></path>
  <path
    d="M0 196L50 207C100 218 200 240 300 233.8C400 227.7 500 193.3 600 189C700 184.7 800 210.3 850 223.2L900 236L900 0L850 0C800 0 700 0 600 0C500 0 400 0 300 0C200 0 100 0 50 0L0 0Z"
    fill="url(#Gradient1)" stroke-linecap="round" stroke-linejoin="miter"></path>

</svg>