<svg id="visual" viewBox="0 0 900 400" width="900" height="400" xmlns="http://www.w3.org/2000/svg"
  xmlns:xlink="http://www.w3.org/1999/xlink" version="1.1">
  <rect x="0" y="0" width="900" height="400" fill="#001220"></rect>
  <path
    d="M0 251L21.5 259.3C43 267.7 86 284.3 128.8 294.7C171.7 305 214.3 309 257.2 308.8C300 308.7 343 304.3 385.8 298.5C428.7 292.7 471.3 285.3 514.2 279.3C557 273.3 600 268.7 642.8 273.5C685.7 278.3 728.3 292.7 771.2 302C814 311.3 857 315.7 878.5 317.8L900 320L900 401L878.5 401C857 401 814 401 771.2 401C728.3 401 685.7 401 642.8 401C600 401 557 401 514.2 401C471.3 401 428.7 401 385.8 401C343 401 300 401 257.2 401C214.3 401 171.7 401 128.8 401C86 401 43 401 21.5 401L0 401Z"
    fill="#fa7268"></path>
  <path
    d="M0 356L21.5 351.3C43 346.7 86 337.3 128.8 332.8C171.7 328.3 214.3 328.7 257.2 330.5C300 332.3 343 335.7 385.8 333.3C428.7 331 471.3 323 514.2 325.7C557 328.3 600 341.7 642.8 346.2C685.7 350.7 728.3 346.3 771.2 344.7C814 343 857 344 878.5 344.5L900 345L900 401L878.5 401C857 401 814 401 771.2 401C728.3 401 685.7 401 642.8 401C600 401 557 401 514.2 401C471.3 401 428.7 401 385.8 401C343 401 300 401 257.2 401C214.3 401 171.7 401 128.8 401C86 401 43 401 21.5 401L0 401Z"
    fill="#c62368"></path>
</svg>