<svg id="visual" viewBox="0 0 900 400" width="900" height="400" xmlns="http://www.w3.org/2000/svg"
  xmlns:xlink="http://www.w3.org/1999/xlink" version="1.1">
  <rect x="0" y="0" width="900" height="400" fill="#002233"></rect>
  <path
    d="M0 60L21.5 70C43 80 86 100 128.8 100.7C171.7 101.3 214.3 82.7 257.2 78.3C300 74 343 84 385.8 92.8C428.7 101.7 471.3 109.3 514.2 105.2C557 101 600 85 642.8 87.3C685.7 89.7 728.3 110.3 771.2 109.7C814 109 857 87 878.5 76L900 65L900 0L878.5 0C857 0 814 0 771.2 0C728.3 0 685.7 0 642.8 0C600 0 557 0 514.2 0C471.3 0 428.7 0 385.8 0C343 0 300 0 257.2 0C214.3 0 171.7 0 128.8 0C86 0 43 0 21.5 0L0 0Z"
    fill="#0066FF" stroke-linecap="round" stroke-linejoin="miter"></path>
</svg>