<svg id="visual" viewBox="0 0 320 420" width="307" height="395" xmlns="http://www.w3.org/2000/svg"
  xmlns:xlink="http://www.w3.org/1999/xlink" version="1.1">
  <defs>
    <pattern id="bg" viewBox="0 0 307 395" width="100%" height="100%">
      <image href="../stars-bg.png" x="0%" y="-15%" width="100%">
        <animate attributeName="y" values="-40%;20%;-40%;" dur="140s" repeatCount="indefinite" />
      </image>
    </pattern>

    <filter id='shadow' color-interpolation-filters="sRGB">
      <feDropShadow dx="2" dy="4" stdDeviation="5" flood-opacity="0.9" />
    </filter>

    <filter id='bgShadow' color-interpolation-filters="sRGB">
      <feDropShadow dx="2" dy="3" stdDeviation="7" flood-opacity="0.7" />
    </filter>
  </defs>

  <g transform="translate(145 215)">
    <path
      d="M119 -131C150 -90 166 -45 160 -5C155 34 129 69 99 101C69 133 34 162 -11 173C-55 183 -111 175 -132 143C-153 111 -139 55 -136 2C-134 -51 -143 -101 -122 -143C-101 -185 -51 -217 -3 -214C45 -212 90 -173 119 -131"
      filter="url(#bgShadow)" fill="#7B80E8"></path>
  </g>
  <g transform="translate(147 214) scale(.92 .94)" fill="url(#bg)">
    <path
      d="M119 -131C150 -90 166 -45 155 -5C150 23 129 49 82 105C69 133 34 162 -11 173C-55 183 -111 175 -132 143C-153 111 -139 55 -136 2C-134 -51 -143 -101 -122 -143C-101 -185 -51 -217 -3 -214C45 -212 90 -173 119 -131"
      filter="url(#shadow)">
    </path>
  </g>
</svg>